<svg width="36" height="103" viewBox="0 0 36 103" fill="none" xmlns="http://www.w3.org/2000/svg">
  <path d="M35.3603 101.957H27.6937C18.587 101.957 11.187 94.6147 11.187 85.6088V63.8864C11.187 57.7856 6.17367 52.8205 0.0136719 52.8205V47.5385C6.17367 47.5385 11.187 42.5733 11.187 36.4726V16.3744C11.1737 7.34205 18.587 0 27.6937 0H35.3603V5.28205H27.6937C21.5337 5.28205 16.5203 10.2472 16.5203 16.3479V36.4462C16.5203 42.1772 13.5203 47.2347 9.00034 50.1531C13.5203 53.0714 16.5203 58.129 16.5203 63.86V85.5824C16.5203 91.6832 21.5337 96.6483 27.6937 96.6483H35.3603V101.957Z" fill="url(#paint0_linear_121_30)"/>
  <defs>
    <linearGradient id="paint0_linear_121_30" x1="17.687" y1="0" x2="17.687" y2="101.957" gradientUnits="userSpaceOnUse">
      <stop stop-color="#41C1DC"/>
      <stop offset="0.322917" stop-color="#48B7D3"/>
      <stop offset="0.630208" stop-color="#3888AD"/>
      <stop offset="1" stop-color="#1A5671"/>
    </linearGradient>
  </defs>
</svg>